<?xml version="1.0" standalone="no"?>
<!DOCTYPE svg PUBLIC "-//W3C//DTD SVG 20010904//EN"
 "http://www.w3.org/TR/2001/REC-SVG-20010904/DTD/svg10.dtd">
<svg version="1.0" xmlns="http://www.w3.org/2000/svg"
 width="1770.000000pt" height="1770.000000pt" viewBox="0 0 1770.000000 1770.000000"
 preserveAspectRatio="xMidYMid meet">
<metadata>
Created by potrace 1.11, written by Peter Selinger 2001-2013
</metadata>
<g transform="translate(0.000000,1770.000000) scale(0.100000,-0.100000)"
fill="#000000" stroke="none">
<path d="M8790 16882 c-225 -25 -365 -56 -485 -107 -147 -63 -233 -112 -342
-195 -262 -199 -453 -466 -542 -755 -17 -55 -33 -113 -36 -130 -3 -16 -12 -70
-21 -120 -8 -49 -16 -146 -16 -215 0 -112 2 -149 18 -241 2 -15 -2 -31 -9 -36
-6 -5 -66 -32 -132 -60 -66 -28 -478 -205 -915 -393 -437 -188 -858 -369 -935
-402 -77 -33 -153 -66 -170 -73 -46 -21 -547 -236 -570 -245 -11 -4 -42 -17
-68 -29 -26 -12 -68 -30 -93 -42 -26 -11 -67 -29 -93 -39 -25 -10 -71 -29
-101 -43 -30 -13 -136 -59 -235 -102 -99 -42 -200 -85 -225 -96 -25 -11 -263
-114 -530 -229 l-485 -208 -44 51 c-116 135 -283 283 -391 345 -227 132 -419
194 -670 218 -171 16 -400 -4 -536 -47 -17 -5 -40 -11 -50 -14 -37 -7 -130
-43 -199 -76 -243 -115 -466 -307 -619 -532 -301 -444 -343 -1037 -106 -1522
44 -90 71 -139 92 -170 80 -111 120 -158 213 -250 172 -172 354 -285 579 -360
60 -20 121 -39 135 -41 14 -3 49 -9 76 -14 101 -19 132 -22 251 -25 162 -4
359 25 525 79 l47 14 383 -534 c211 -295 394 -550 405 -567 26 -39 369 -518
381 -532 5 -5 50 -69 101 -142 l93 -132 -109 -153 c-100 -141 -680 -958 -760
-1073 -257 -365 -477 -673 -490 -687 -16 -16 -21 -16 -96 7 -79 24 -188 48
-281 62 -65 9 -316 9 -380 -1 -202 -30 -357 -77 -503 -152 -59 -31 -114 -62
-123 -70 -8 -8 -19 -14 -23 -14 -16 0 -134 -97 -220 -179 -191 -185 -318 -385
-390 -611 -38 -120 -43 -140 -50 -180 -3 -19 -8 -45 -10 -57 -11 -54 -20 -165
-20 -248 -2 -523 247 -991 682 -1284 62 -42 252 -144 252 -136 0 2 21 -5 48
-16 71 -31 261 -78 365 -90 397 -47 803 65 1122 310 69 53 214 194 239 234 10
15 25 27 34 27 14 0 166 -59 247 -96 17 -7 170 -70 340 -140 171 -69 360 -146
420 -171 61 -25 175 -72 255 -104 80 -33 154 -64 165 -69 17 -8 345 -142 690
-283 131 -53 857 -351 1435 -589 228 -94 453 -186 500 -205 47 -18 94 -38 105
-43 11 -5 114 -48 229 -95 116 -47 212 -87 214 -90 3 -3 -2 -46 -25 -180 -15
-90 -10 -251 13 -430 9 -77 69 -275 111 -367 166 -369 497 -679 863 -807 95
-33 225 -67 285 -76 22 -3 63 -8 90 -11 93 -13 380 -4 405 11 3 2 24 6 46 9
120 18 316 88 448 160 166 91 371 267 472 406 22 30 52 71 67 91 79 108 176
340 211 499 24 114 25 119 41 313 2 21 6 41 9 44 3 3 110 114 238 246 281 290
285 294 619 638 147 151 293 302 325 336 33 33 168 173 300 310 133 136 279
287 325 334 46 48 195 201 330 340 136 140 280 288 320 330 41 42 182 187 314
323 132 136 276 285 320 331 44 45 188 194 320 330 132 136 276 284 320 330
44 45 193 199 330 340 138 142 279 288 315 325 635 656 619 640 634 640 6 0
46 -18 91 -39 206 -100 454 -156 684 -153 124 2 179 9 369 48 115 24 348 126
462 204 211 143 390 341 506 559 24 45 44 89 44 97 0 7 5 14 12 14 6 0 8 3 5
7 -4 3 -3 11 2 17 11 13 67 189 74 231 3 17 10 53 15 80 34 173 33 397 -3 565
-3 14 -10 45 -15 70 -27 138 -110 329 -206 477 -185 285 -496 523 -808 618
-397 121 -816 87 -1173 -96 l-116 -59 -61 64 c-59 62 -333 347 -491 511 -42
44 -156 163 -253 264 -98 101 -206 214 -242 251 -108 111 -443 460 -511 532
-65 67 -379 394 -499 518 -36 38 -110 115 -165 172 -55 57 -191 198 -302 313
-110 116 -229 239 -263 275 -34 36 -148 154 -254 264 -105 109 -220 229 -256
266 -36 37 -153 159 -260 271 -107 111 -253 263 -325 338 -71 74 -179 186
-240 249 -60 62 -139 144 -175 182 -36 38 -151 158 -256 267 -106 109 -213
221 -239 248 -26 28 -69 73 -97 101 l-50 51 -3 114 c-2 63 -6 132 -10 154 -57
379 -184 640 -430 890 -269 273 -579 419 -955 450 -92 8 -187 11 -220 7z
m1945 -2324 c66 -69 210 -219 321 -334 111 -115 225 -234 253 -264 29 -30 141
-147 250 -260 109 -113 220 -228 247 -256 27 -28 137 -142 244 -254 107 -111
220 -228 250 -260 30 -32 141 -147 246 -256 106 -110 220 -228 254 -264 34
-36 148 -154 254 -264 105 -109 216 -224 246 -256 47 -50 153 -160 487 -506
115 -120 455 -473 513 -534 30 -31 141 -146 245 -255 105 -109 219 -228 255
-265 120 -125 285 -297 314 -328 l29 -32 -70 -72 c-39 -40 -84 -89 -100 -108
-40 -46 -132 -183 -162 -241 l-24 -46 -126 42 c-180 61 -1447 479 -4197 1387
l-121 40 -1 41 c-11 309 -109 608 -278 848 -67 97 -249 284 -343 353 -187 138
-440 245 -636 271 -28 4 -70 11 -95 15 -49 9 -317 7 -393 -4 -107 -14 -316
-70 -377 -101 -14 -7 -52 -25 -85 -40 -225 -104 -471 -326 -621 -560 -77 -122
-165 -330 -188 -446 -2 -13 -10 -54 -17 -91 -8 -38 -18 -68 -24 -68 -6 0 -78
16 -160 35 -83 20 -188 44 -235 55 -121 28 -220 52 -420 99 -96 23 -184 44
-195 46 -11 3 -135 32 -275 66 -296 71 -281 67 -297 68 -7 1 12 36 43 79 42
58 408 573 484 682 29 41 1173 1656 1222 1725 31 44 76 107 99 140 24 33 64
90 91 127 l49 67 92 -92 c126 -126 150 -146 251 -212 373 -243 811 -311 1256
-195 471 122 890 520 1037 984 l28 88 130 -134 c71 -74 184 -191 250 -260z
m-3295 261 c0 -7 20 -54 45 -107 25 -52 45 -100 45 -106 0 -6 -13 -27 -28 -46
-16 -19 -55 -73 -87 -120 -32 -47 -113 -161 -180 -255 -67 -93 -159 -224 -205
-290 -47 -66 -88 -124 -93 -130 -6 -8 -216 -304 -287 -405 -56 -80 -256 -363
-276 -390 -24 -33 -415 -585 -488 -688 -187 -265 -335 -474 -353 -498 -4 -5
-12 -17 -18 -26 -5 -8 -28 -41 -49 -72 -39 -56 -41 -57 -75 -51 -20 4 -47 9
-60 12 -14 2 -28 6 -31 8 -4 2 -20 6 -36 9 -16 3 -76 17 -134 32 -58 14 -114
28 -125 30 -11 2 -33 7 -50 11 -16 4 -32 7 -35 8 -3 1 -18 4 -35 8 -16 4 -39
9 -50 11 -11 2 -76 18 -145 35 -69 16 -156 37 -195 46 -81 19 -64 15 -230 55
-71 17 -158 37 -192 45 -160 38 -198 47 -353 84 -91 21 -228 53 -305 71 -77
17 -162 38 -190 46 -27 8 -52 14 -55 14 -3 0 -20 3 -37 6 -29 5 -33 10 -34 38
-2 98 -16 216 -44 369 -9 45 -75 237 -97 280 -11 22 -16 43 -11 47 7 7 414
184 878 381 77 33 154 66 170 74 17 7 255 110 530 228 275 118 631 271 790
340 160 69 369 159 465 200 564 242 1557 669 1593 686 48 23 67 26 67 10z
m-4190 -2944 c63 -15 123 -28 133 -30 10 -3 27 -7 37 -10 10 -3 27 -7 37 -9
10 -3 50 -12 88 -21 39 -9 80 -19 92 -21 12 -2 34 -9 48 -14 14 -5 25 -8 25
-5 0 2 15 -1 33 -6 17 -5 46 -12 62 -15 17 -2 38 -7 47 -10 9 -3 25 -6 35 -8
10 -2 47 -12 83 -21 36 -9 76 -19 90 -21 14 -3 108 -25 210 -49 328 -79 519
-124 542 -129 13 -2 82 -19 153 -36 72 -17 141 -34 155 -36 14 -3 33 -7 42
-10 10 -3 30 -7 45 -10 15 -3 32 -8 39 -12 11 -6 -70 -130 -232 -352 -28 -38
-158 -222 -202 -285 -16 -22 -116 -164 -223 -316 l-195 -276 -36 26 c-29 20
-542 433 -633 509 -11 9 -77 62 -145 116 -69 55 -127 102 -130 106 -3 3 -48
39 -100 80 -52 41 -97 77 -100 80 -3 3 -63 52 -135 110 -71 57 -144 115 -161
129 -17 14 -43 35 -58 47 l-26 21 59 119 c57 114 131 323 131 369 0 30 6 34
43 25 18 -4 84 -20 147 -35z m2455 -580 c11 -2 88 -20 170 -39 83 -20 159 -38
170 -40 11 -2 67 -16 125 -30 224 -54 366 -88 390 -92 14 -3 43 -10 65 -16 22
-5 49 -12 60 -14 11 -2 29 -6 40 -8 11 -3 79 -19 150 -36 72 -18 137 -33 145
-35 17 -4 254 -58 256 -59 2 -1 9 -52 19 -146 16 -140 73 -337 130 -450 14
-27 25 -53 25 -58 0 -8 -283 -236 -399 -321 -25 -19 -48 -37 -51 -40 -3 -4
-237 -188 -520 -410 -283 -223 -543 -426 -576 -453 l-62 -48 -38 31 c-22 17
-57 45 -79 63 -22 18 -78 64 -124 101 -46 37 -141 113 -210 169 -69 56 -232
187 -361 291 -129 105 -242 195 -250 202 -8 7 -54 43 -102 82 l-87 69 169 239
c93 131 174 245 180 253 6 8 58 83 117 165 179 253 265 374 368 520 55 77 103
143 107 146 5 3 41 -3 81 -13 39 -10 81 -20 92 -23z m-2907 -168 c42 -35 172
-139 287 -232 116 -93 314 -253 440 -355 466 -377 540 -436 624 -503 47 -38
86 -72 86 -77 0 -8 -176 -263 -245 -355 -14 -19 -45 -63 -70 -100 -25 -36 -52
-74 -60 -85 -8 -10 -62 -86 -120 -169 -58 -82 -108 -150 -111 -151 -3 0 -82
107 -175 238 -93 130 -172 242 -177 247 -20 26 -78 106 -119 165 -40 58 -418
586 -454 635 -8 11 -48 67 -89 125 -41 58 -78 110 -82 115 -39 49 -183 255
-183 262 0 5 30 29 68 53 37 24 76 52 87 61 11 10 40 35 65 56 25 21 65 59 90
85 25 26 49 47 53 48 4 0 42 -28 85 -63z m7772 -500 c91 -30 530 -175 975
-322 446 -147 923 -305 1060 -350 138 -46 594 -196 1015 -335 941 -310 1063
-351 1072 -356 4 -3 3 -16 -2 -30 -6 -14 -12 -39 -15 -57 -4 -18 -10 -50 -15
-73 -23 -103 -31 -315 -16 -449 9 -83 38 -216 64 -301 l19 -62 -51 -15 c-28
-9 -125 -41 -216 -72 -91 -32 -262 -90 -380 -130 -118 -40 -415 -142 -660
-225 -417 -142 -571 -195 -1190 -405 -135 -46 -346 -118 -470 -160 -124 -43
-342 -117 -485 -165 -143 -49 -392 -134 -554 -189 -162 -56 -301 -101 -310
-101 -13 0 -19 18 -29 83 -50 313 -190 585 -422 817 -63 63 -154 143 -202 176
-149 105 -386 210 -539 239 -13 3 -35 7 -49 10 -156 31 -333 35 -505 11 -138
-19 -138 -19 -257 -56 -182 -57 -404 -180 -527 -294 -75 -69 -170 -169 -204
-213 -36 -48 -45 -51 -73 -25 -10 10 -170 139 -354 287 -184 148 -341 275
-349 283 -8 7 -37 31 -65 52 -40 30 -502 402 -576 463 -8 7 -59 48 -113 91
-54 43 -96 80 -95 81 4 4 166 133 209 166 121 95 984 772 1078 847 19 15 84
66 145 114 l111 86 29 -36 c31 -39 162 -170 211 -212 210 -178 467 -288 790
-339 63 -10 345 -8 405 3 225 41 401 103 563 199 267 159 484 400 611 680 32
69 72 182 80 223 5 25 27 116 31 131 4 13 10 12 255 -70z m-5955 -965 c49 -41
108 -88 130 -106 22 -18 135 -109 250 -202 116 -93 217 -174 225 -181 112 -92
370 -299 388 -310 12 -9 22 -19 22 -23 0 -4 -143 -119 -317 -255 -175 -137
-325 -255 -333 -262 -8 -7 -60 -48 -115 -91 -55 -43 -167 -131 -249 -195
l-149 -117 -16 24 c-9 14 -70 101 -137 193 -66 92 -212 295 -323 451 l-203
283 25 37 c40 58 114 164 381 540 l249 351 41 -32 c22 -18 81 -65 131 -105z
m1349 -1089 c157 -126 154 -124 190 -154 17 -14 146 -118 287 -231 263 -211
280 -225 333 -269 17 -14 126 -101 241 -194 362 -291 470 -378 478 -385 4 -3
-9 -46 -29 -95 -41 -103 -90 -283 -100 -366 l-6 -57 -42 -7 c-22 -4 -45 -9
-51 -10 -24 -7 -112 -27 -134 -31 -14 -3 -79 -18 -145 -34 -67 -16 -170 -40
-231 -54 -60 -14 -256 -59 -435 -101 -179 -41 -334 -77 -345 -79 -11 -3 -40
-9 -65 -15 -25 -7 -54 -13 -65 -15 -11 -1 -36 -8 -55 -14 -29 -9 -89 -21 -117
-24 -5 0 -19 -4 -32 -9 -13 -5 -38 -12 -56 -15 -37 -6 -21 -26 -426 541 -90
127 -168 235 -172 240 -8 10 -271 379 -335 469 -18 27 -30 51 -24 55 8 6 307
240 562 441 59 47 125 99 146 115 21 17 61 48 89 70 27 22 79 63 115 90 36 27
72 55 80 62 58 48 216 172 219 173 2 0 58 -44 125 -97z m-2081 -274 c100 -136
377 -530 377 -536 -1 -4 -96 -82 -212 -173 -116 -91 -249 -194 -294 -230 -46
-36 -138 -108 -206 -162 -68 -53 -235 -184 -373 -292 -137 -108 -266 -209
-285 -224 -19 -15 -57 -45 -85 -67 -27 -22 -65 -51 -83 -64 l-33 -23 -82 79
c-79 77 -239 203 -258 203 -20 0 -5 27 88 158 54 75 107 151 119 167 11 17
121 172 244 345 123 173 240 338 259 366 20 27 110 155 201 283 91 128 172
242 180 254 39 59 165 234 178 249 14 16 24 4 131 -146 64 -90 124 -174 134
-187z m10997 -306 c60 -92 176 -228 243 -288 31 -27 57 -52 57 -55 0 -6 -62
-71 -440 -460 -131 -135 -271 -279 -311 -322 -41 -42 -180 -185 -309 -318
-129 -133 -269 -277 -310 -320 -41 -43 -182 -188 -312 -322 -131 -135 -275
-283 -320 -331 -46 -47 -191 -197 -323 -333 -132 -136 -274 -282 -315 -324
-192 -198 -544 -561 -623 -644 -49 -50 -194 -199 -322 -331 -128 -132 -268
-277 -311 -321 -107 -110 -519 -536 -623 -643 -46 -47 -135 -139 -199 -204
l-115 -118 -18 68 c-64 252 -196 480 -386 671 -103 104 -162 152 -258 215
-248 160 -531 240 -845 241 -74 0 -218 -12 -230 -19 -3 -2 -24 -6 -45 -8 -22
-3 -60 -10 -85 -16 -253 -66 -483 -192 -669 -367 -46 -43 -86 -73 -90 -68 -4
5 -93 128 -196 274 -104 146 -205 288 -225 315 -34 46 -279 387 -355 495 -17
25 -249 349 -515 720 -715 997 -710 991 -705 999 4 7 60 22 133 36 13 2 31 6
40 9 9 3 28 7 42 10 14 2 45 9 70 16 25 7 54 14 65 16 11 2 119 27 240 55 331
76 402 93 620 144 110 26 207 48 215 50 8 2 55 12 105 24 49 11 90 19 92 18 1
-1 4 -27 8 -57 10 -94 15 -122 40 -226 85 -357 317 -683 643 -903 155 -104
403 -201 582 -226 19 -3 64 -9 100 -14 68 -9 284 -7 360 4 250 36 516 143 703
284 296 222 472 484 576 856 14 51 41 212 41 246 0 16 7 30 18 34 22 9 302
105 597 206 392 133 1084 369 1205 411 63 21 122 41 130 43 15 4 535 181 790
269 74 26 180 62 235 80 96 33 693 236 1205 411 135 46 247 84 250 84 3 1 25
-29 50 -66z m-10379 -559 c46 -63 93 -128 104 -144 83 -121 643 -899 657 -914
24 -27 23 -33 -9 -38 -16 -3 -118 -26 -228 -52 -110 -26 -207 -49 -215 -51 -8
-2 -49 -11 -90 -20 -41 -8 -88 -20 -105 -25 -16 -5 -41 -11 -55 -14 -14 -2
-56 -12 -95 -21 -98 -23 -89 -21 -210 -48 -93 -21 -465 -107 -530 -123 -11 -3
-31 -7 -45 -10 -50 -10 -457 -105 -537 -126 -77 -19 -116 -19 -111 -1 8 32
-65 240 -128 364 -30 58 -54 108 -54 110 0 3 24 23 53 44 28 22 54 42 57 45 3
3 43 35 90 70 46 36 91 71 100 79 31 28 1255 989 1261 990 3 1 44 -51 90 -115z
m1214 -1695 c149 -209 278 -389 287 -402 9 -12 123 -170 252 -352 129 -181
239 -334 244 -340 7 -8 86 -119 203 -284 14 -20 208 -291 432 -603 223 -312
411 -576 417 -588 9 -17 5 -30 -23 -78 -18 -31 -45 -83 -60 -114 l-27 -58 -32
14 c-78 34 -110 47 -238 99 -74 30 -202 83 -285 117 -82 34 -222 91 -309 127
-88 35 -252 102 -365 149 -270 111 -352 145 -376 154 -11 4 -36 15 -55 23 -19
8 -163 67 -320 131 -157 64 -305 125 -330 136 -49 21 -368 152 -440 180 -73
29 -293 120 -315 130 -11 5 -186 77 -390 160 -203 83 -406 166 -450 185 -215
90 -598 245 -605 245 -4 0 -13 6 -19 14 -9 11 -8 22 7 47 42 76 107 271 126
379 3 19 8 46 11 60 9 44 19 173 19 238 0 55 3 63 21 67 26 6 164 38 280 65
50 12 98 23 109 25 10 3 80 18 155 36 75 17 143 32 151 34 8 2 35 8 60 15 45
12 63 16 110 25 14 2 61 13 105 24 44 10 152 36 240 56 88 20 205 47 260 60
55 13 181 42 280 65 99 23 263 61 365 85 102 24 194 45 205 48 11 3 22 5 25 5
3 1 127 -170 275 -379z"/>
</g>
</svg>
